<svg width="60" height="60" viewBox="0 0 60 60" fill="none" xmlns="http://www.w3.org/2000/svg">
<g id="Outline/Devices/Desktop">
<path id="Icon" fill-rule="evenodd" clip-rule="evenodd" d="M29.9072 9.34546L48.035 9.858C51.2381 9.94857 53.8874 12.3802 54.2517 15.5638C55.058 22.6109 55.058 29.7271 54.2517 36.7742C53.8874 39.9579 51.2381 42.3894 48.035 42.48L34.2687 42.8692V47.9763H42.3686C43.4009 47.9763 44.2378 48.8132 44.2378 49.8456C44.2378 50.8779 43.4009 51.7147 42.3686 51.7147H17.4459C16.4136 51.7147 15.5767 50.8779 15.5767 49.8456C15.5767 48.8132 16.4136 47.9763 17.4459 47.9763H25.5458V42.8692L11.7794 42.48C8.57626 42.3894 5.92694 39.9579 5.56268 36.7742C4.75637 29.7271 4.75637 22.6109 5.56268 15.5638C5.92694 12.3802 8.57626 9.94857 11.7794 9.858L29.9072 9.34546ZM29.9072 13.0854L11.885 13.5949C10.5412 13.6329 9.42967 14.6531 9.27685 15.9887C8.50285 22.7535 8.50285 29.5845 9.27685 36.3493C9.42967 37.6849 10.5412 38.7051 11.885 38.7431L29.9072 39.2527L47.9294 38.7431C49.2732 38.7051 50.3847 37.6849 50.5375 36.3493C51.3115 29.5845 51.3115 22.7535 50.5375 15.9887C50.3847 14.6531 49.2732 13.6329 47.9294 13.5949L29.9072 13.0854Z" fill="#2D6974"/>
</g>
</svg>
